<?xml version="1.0" encoding="UTF-8" standalone="no"?>
<!-- Created with Inkscape (http://www.inkscape.org/) -->

<svg
   xmlns:dc="http://purl.org/dc/elements/1.1/"
   xmlns:cc="http://creativecommons.org/ns#"
   xmlns:rdf="http://www.w3.org/1999/02/22-rdf-syntax-ns#"
   xmlns:svg="http://www.w3.org/2000/svg"
   xmlns="http://www.w3.org/2000/svg"
   xmlns:sodipodi="http://sodipodi.sourceforge.net/DTD/sodipodi-0.dtd"
   xmlns:inkscape="http://www.inkscape.org/namespaces/inkscape"
   width="619"
   height="145"
   id="svg4307"
   version="1.1"
   inkscape:version="0.48.5 r10040"
   sodipodi:docname="New document 3">
  <defs
     id="defs4309" />
  <sodipodi:namedview
     id="base"
     pagecolor="#ffffff"
     bordercolor="#666666"
     borderopacity="1.0"
     inkscape:pageopacity="0.0"
     inkscape:pageshadow="2"
     inkscape:zoom="2.8"
     inkscape:cx="100.57718"
     inkscape:cy="100.35181"
     inkscape:document-units="px"
     inkscape:current-layer="layer1"
     showgrid="false"
     inkscape:window-width="1280"
     inkscape:window-height="780"
     inkscape:window-x="0"
     inkscape:window-y="20"
     inkscape:window-maximized="1" />
  <metadata
     id="metadata4312">
    <rdf:RDF>
      <cc:Work
         rdf:about="">
        <dc:format>image/svg+xml</dc:format>
        <dc:type
           rdf:resource="http://purl.org/dc/dcmitype/StillImage" />
        <dc:title></dc:title>
      </cc:Work>
    </rdf:RDF>
  </metadata>
  <g
     inkscape:label="Layer 1"
     inkscape:groupmode="layer"
     id="layer1"
     transform="translate(0,-907.36218)">
    <g
       transform="matrix(1.25,0,0,-1.25,-56.086647,1636.9469)"
       id="g4252">
      <g
         id="g3937">
        <text
           transform="matrix(1,5.4579059e-5,5.4579059e-5,-1,299.9606,552.4816)"
           id="text12">
          <tspan
             style="font-size:40.30849838px;font-variant:normal;font-weight:normal;font-stretch:normal;writing-mode:lr-tb;fill:#231f20;fill-opacity:1;fill-rule:nonzero;stroke:none;font-family:Futura T;-inkscape-font-specification:FuturaT-Book"
             x="0 23.137079 44.339352 63.44558 72.27314 93.596336 110.76776 119.59532 127.0927 137.37137 156.31636 175.42259 196.74579"
             y="0"
             sodipodi:role="line"
             id="tspan14">Kontakt- und</tspan>
          <tspan
             style="font-size:40.30849838px;font-variant:normal;font-weight:normal;font-stretch:normal;writing-mode:lr-tb;fill:#231f20;fill-opacity:1;fill-rule:nonzero;stroke:none;font-family:Futura T;-inkscape-font-specification:FuturaT-Book"
             x="0 21.565048 41.15498 53.247528 74.570724 83.398285 102.34328 121.44951 142.81302 157.12253 171.43205 180.25961 199.84955 208.39494 216.94035 236.53027"
             y="33.818832"
             sodipodi:role="line"
             id="tspan16">Beratungsstelle</tspan>
        </text>
        <text
           transform="matrix(1,5.5543924e-5,5.5543924e-5,-1,302.5645,493.9696)"
           id="text18">
          <tspan
             style="font-size:23.4048996px;font-variant:normal;font-weight:300;font-stretch:normal;writing-mode:lr-tb;fill:#231f20;fill-opacity:1;fill-rule:nonzero;stroke:none;font-family:Futura T;-inkscape-font-specification:FuturaT-Light"
             x="0 5.0320535 15.2834 21.415483 27.313519 36.862717 41.192623 51.44397 61.81234 72.18071 76.768074 81.097977 85.427887 95.77285 108.01361 119.3884 125.28643 135.53778 145.88274 157.98308"
             y="0"
             sodipodi:role="line"
             id="tspan20">für Flüchtlinge und</tspan>
          <tspan
             style="font-size:23.4048996px;font-variant:normal;font-weight:300;font-stretch:normal;writing-mode:lr-tb;fill:#231f20;fill-opacity:1;fill-rule:nonzero;stroke:none;font-family:Futura T;-inkscape-font-specification:FuturaT-Light"
             x="0 21.041004 25.370913 37.611675 43.743759 55.844093 66.189056 70.776421 82.525681 86.855583 97.200546 107.54552 118.9203 129.26526 135.1633 146.53809 151.33609 163.27258"
             y="20.806955"
             sodipodi:role="line"
             id="tspan22">Migrant_innen e.V.</tspan>
        </text>
        <g
           id="g32"
           transform="translate(66.2783,510.6094)">
          <path
             inkscape:connector-curvature="0"
             d="M 0,0 1.019,-35.481 37.34,-35.801 3.471,3.675 0,0 z"
             style="fill:#231f20;fill-opacity:1;fill-rule:nonzero;stroke:none"
             id="path34" />
        </g>
        <g
           id="g36"
           transform="translate(64.8984,558.6665)">
          <path
             inkscape:connector-curvature="0"
             d="M 0,0 0.762,-26.542 27.305,2.271 0,0 z"
             style="fill:#231f20;fill-opacity:1;fill-rule:nonzero;stroke:none"
             id="path38" />
        </g>
      </g>
      <g
         transform="translate(116.2119,562.9336)"
         id="g48">
        <path
           inkscape:connector-curvature="0"
           id="path50"
           style="fill:#231f20;fill-opacity:1;fill-rule:nonzero;stroke:none"
           d="m 0,0 -34.442,-36.531 45.61,-51.803 16.115,-0.14 c -1.605,1.911 -2.887,3.953 -3.794,6.144 -1.489,3.334 -2.325,8.327 -2.516,14.979 l -1.205,41.988 16.749,0.481 1.195,-41.616 c 0.345,-12.011 5.256,-17.88 14.737,-17.607 9.477,0.272 14.044,6.412 13.702,18.424 l -1.195,41.616 16.75,0.48 1.205,-41.987 c 0.167,-5.809 -0.411,-10.842 -1.726,-15.101 -0.995,-2.953 -2.619,-5.692 -4.842,-8.232 L 98.795,-89.102 96.008,7.984 0,0 z" />
      </g>
      <g
         transform="translate(266.5117,473.3809)"
         id="g52">
        <path
           inkscape:connector-curvature="0"
           id="path54"
           style="fill:#231f20;fill-opacity:1;fill-rule:nonzero;stroke:none"
           d="m 0,0 26.487,-1.28 -0.061,106.71 -32.594,-3.891 c 2.894,-2.698 5.28,-5.971 7.106,-9.883 C 3,87.295 4.098,82.854 4.228,78.339 4.464,70.099 1.512,63.037 -4.628,57.148 1.536,55.239 6.455,51.729 10.128,46.619 13.85,41.56 15.81,35.607 16.006,28.758 16.264,19.771 13.304,12.089 7.131,5.704 4.938,3.38 2.547,1.513 0,0" />
      </g>
      <g
         transform="translate(250.1162,538.1636)"
         id="g56">
        <path
           inkscape:connector-curvature="0"
           id="path58"
           style="fill:#231f20;fill-opacity:1;fill-rule:nonzero;stroke:none"
           d="m 0,0 c 2.944,2.964 4.335,7.227 4.179,12.787 -0.156,5.41 -1.813,9.459 -4.969,12.152 -3.16,2.739 -7.667,4.025 -13.522,3.857 l -6.105,-0.175 0.959,-33.426 5.435,0.157 C -7.571,-4.463 -2.898,-2.915 0,0" />
      </g>
      <g
         transform="translate(259.4336,514.6631)"
         id="g60">
        <path
           inkscape:connector-curvature="0"
           id="path62"
           style="fill:#231f20;fill-opacity:1;fill-rule:nonzero;stroke:none"
           d="m 0,0 c -3.72,3.221 -10.243,4.696 -19.574,4.432 l -8.784,-0.252 0.998,-34.767 10.72,0.307 c 7.839,0.225 13.555,1.928 17.139,5.113 3.775,3.433 5.59,7.708 5.443,12.821 C 5.8,-7.384 3.819,-3.269 0,0" />
      </g>
      <g
         transform="translate(45.0391,557.0464)"
         id="g64">
        <path
           inkscape:connector-curvature="0"
           id="path66"
           style="fill:#231f20;fill-opacity:1;fill-rule:nonzero;stroke:none"
           d="M 0,0 2.348,-81.778 5.167,-81.804 2.811,0.229 0,0 z" />
      </g>
    </g>
  </g>
</svg>
